<?xml version="1.0"?>
<svg xmlns="http://www.w3.org/2000/svg" xmlns:xlink="http://www.w3.org/1999/xlink" xmlns:svgjs="http://svgjs.com/svgjs" version="1.1" width="512" height="512" x="0" y="0" viewBox="0 0 512 512" style="enable-background:new 0 0 512 512" xml:space="preserve" class=""><g>
<path xmlns="http://www.w3.org/2000/svg" style="" d="M320,0H64C46.368,0,32,14.368,32,32v448c0,17.664,14.368,32,32,32h256c17.664,0,32-14.336,32-32V32  C352,14.368,337.664,0,320,0z" fill="#373737" data-original="#455a64" class=""/>
<rect xmlns="http://www.w3.org/2000/svg" x="64" y="64" style="" width="256" height="352" fill="#eceff1" data-original="#eceff1" class=""/>
<path xmlns="http://www.w3.org/2000/svg" style="" d="M448,128H256c-17.632,0-32,14.368-32,32v128c0,17.952,14.048,32,32,32h32v32  c0,6.048,3.424,11.584,8.832,14.304c2.272,1.12,4.736,1.696,7.168,1.696c3.392,0,6.784-1.088,9.6-3.2l59.744-44.8H448  c17.952,0,32-14.048,32-32V160C480,142.048,465.952,128,448,128z" fill="#55ce8f" data-original="#2196f3" class=""/>
<g xmlns="http://www.w3.org/2000/svg">
	<path style="" d="M304.64,240c-8.832,0-16.16-7.168-16.16-16s6.976-16,15.84-16h0.32c8.832,0,16,7.168,16,16   S313.472,240,304.64,240z" fill="#fafafa" data-original="#fafafa"/>
	<path style="" d="M400.64,240c-8.8,0-16.16-7.168-16.16-16s7.008-16,15.84-16h0.32c8.832,0,16,7.168,16,16   S409.472,240,400.64,240z" fill="#fafafa" data-original="#fafafa"/>
</g>
<g xmlns="http://www.w3.org/2000/svg">
</g>
<g xmlns="http://www.w3.org/2000/svg">
</g>
<g xmlns="http://www.w3.org/2000/svg">
</g>
<g xmlns="http://www.w3.org/2000/svg">
</g>
<g xmlns="http://www.w3.org/2000/svg">
</g>
<g xmlns="http://www.w3.org/2000/svg">
</g>
<g xmlns="http://www.w3.org/2000/svg">
</g>
<g xmlns="http://www.w3.org/2000/svg">
</g>
<g xmlns="http://www.w3.org/2000/svg">
</g>
<g xmlns="http://www.w3.org/2000/svg">
</g>
<g xmlns="http://www.w3.org/2000/svg">
</g>
<g xmlns="http://www.w3.org/2000/svg">
</g>
<g xmlns="http://www.w3.org/2000/svg">
</g>
<g xmlns="http://www.w3.org/2000/svg">
</g>
<g xmlns="http://www.w3.org/2000/svg">
</g>
</g></svg>
